# xmcd
#
# Track frame offsets: 
#        150
#        15695
#        61705
#        93725
#
# Disc length: 1417 seconds
#
# Revision: 1
# Processed by: cddbd v1.5.2PL0 Copyright (c) Steve Scherf et al.
# Submitted via: ExactAudioCopy v0.99pb5
#
DISCID=29058704
DTITLE=Pierre Henry and Michel Colombier - Psyché Rock
DYEAR=1900
DGENRE=Electronica
TTITLE0=Psyché Rock (Metal Time Machine Edit)
TTITLE1=Psyché Rock (The Invisible Mix)
TTITLE2=Psyché Rock (Chopped Up)
TTITLE3=Psyché Rock (1996 Original Mix)
EXTD=
EXTT0=
EXTT1=
EXTT2=
EXTT3=
PLAYORDER=
